# xmcd
#
# Track frame offsets:
#	182
#	15249
#	27824
#	41581
#	56138
#	68905
#	79920
#	92986
#	105148
#	119535
#	133997
#	149154
#	162416
#	175662
#	189415
#	199778
#	212678
#	225939
#	239650
#	252138
#	266687
#
# Disc length: 3782 seconds
#
# Revision: 0
# Processed by: cddbd v1.5.1PL2 Copyright (c) Steve Scherf et al.
# Submitted via: EasyCDDAExtractor 4.5.0.2
#
DISCID=290ec415
DTITLE=Various Artist - Trains On The Highway
DYEAR=1900
DGENRE=Blues
TTITLE0=Big Joe Williams and Sonny Boy Williamson - Baby Please Don't Go
TTITLE1=Sonny Terry - Train Whistle Blues
TTITLE2=Big Joe Williams and Sonny Boy Williamson - Good Morning Little School G
TTITLE2=irl
TTITLE3=Willie Hatcher - Suzie Q
TTITLE4=Freeman Stowers - Railroad Blues
TTITLE5=Jazz Gillum - Gillum's Windy Blues
TTITLE6=Big Bill Broonzy and Jazz Gillum - Key to the Highway
TTITLE7=Big Joe Williams and Sonny Boy Williamson - Throw a Boogie Woogie
TTITLE8=Memphis Jug Band and Will Shade - He's in the Jailhouse Now
TTITLE9=Big Joe Williams and Sonny Boy Williamson - Highway 49
TTITLE10=De Ford Baily - Davidson County Blues
TTITLE11=Robert Hill - I'm Going to Write and Tell Mother
TTITLE12=Blind Boy Fuller and Sonny Terry - Three Ball Blues
TTITLE13=State Street Boys and Jazz Gillum - Crazy About You
TTITLE14=Chuck Darling - Harmonica Rag
TTITLE15=Yank Rachell and Sonny Boy Williamson - It Seems Like a Dream
TTITLE16=Big Joe Williams and Sonny Boy Williamson - I'm Tired Trucking My Blues
TTITLE16=Away
TTITLE17=Son Bonds and Hammie Nixon - Trouble Trouble Blues
TTITLE18=Yank Rachell and Sonny Boy Williamson - Tappin' That Thing
TTITLE19=Alfred Lewis - Friday Moan Blues
TTITLE20=Jazz Gillum - I Want You by My Side
EXTD=
EXTT0=
EXTT1=
EXTT2=
EXTT3=
EXTT4=
EXTT5=
EXTT6=
EXTT7=
EXTT8=
EXTT9=
EXTT10=
EXTT11=
EXTT12=
EXTT13=
EXTT14=
EXTT15=
EXTT16=
EXTT17=
EXTT18=
EXTT19=
EXTT20=
PLAYORDER=
